<svg width="21" height="17" viewBox="0 0 21 17" fill="none" xmlns="http://www.w3.org/2000/svg">
<path fill-rule="evenodd" clip-rule="evenodd" d="M0.449951 8.50024C0.449951 8.91446 0.785738 9.25024 1.19995 9.25024L19.7 9.25024C20.1142 9.25025 20.45 8.91446 20.45 8.50025C20.45 8.08603 20.1142 7.75025 19.7 7.75024L1.19995 7.75024C0.785738 7.75024 0.449951 8.08603 0.449951 8.50024Z" fill="white"/>
<path fill-rule="evenodd" clip-rule="evenodd" d="M12.6697 0.969914C12.3768 1.26281 12.3768 1.73768 12.6697 2.03057L18.9626 8.32347C19.0602 8.4211 19.0602 8.57939 18.9626 8.67702L12.6697 14.9699C12.3768 15.2628 12.3768 15.7377 12.6697 16.0306C12.9626 16.3235 13.4374 16.3235 13.7303 16.0306L20.0232 9.73768C20.7067 9.05426 20.7067 7.94622 20.0232 7.26281L13.7303 0.969914C13.4374 0.677021 12.9626 0.677021 12.6697 0.969914Z" fill="white"/>
</svg>
