<svg width="21" height="17" viewBox="0 0 21 17" fill="none" xmlns="http://www.w3.org/2000/svg">
<path fill-rule="evenodd" clip-rule="evenodd" d="M20.5358 8.5C20.5358 8.91421 20.2 9.25 19.7858 9.25L1.28577 9.25C0.871553 9.25 0.535767 8.91421 0.535767 8.5C0.535767 8.08579 0.871553 7.75 1.28577 7.75L19.7858 7.75C20.2 7.75 20.5358 8.08579 20.5358 8.5Z" fill="white"/>
<path fill-rule="evenodd" clip-rule="evenodd" d="M8.31604 0.96967C8.60893 1.26256 8.60893 1.73744 8.31604 2.03033L2.02314 8.32322C1.92551 8.42085 1.92551 8.57915 2.02314 8.67678L8.31604 14.9697C8.60893 15.2626 8.60893 15.7374 8.31603 16.0303C8.02314 16.3232 7.54827 16.3232 7.25537 16.0303L0.962481 9.73744C0.279063 9.05402 0.279066 7.94598 0.962482 7.26256L7.25538 0.96967C7.54827 0.676777 8.02314 0.676777 8.31604 0.96967Z" fill="white"/>
</svg>
